<?xml version="1.0" encoding="UTF-8"?>
<svg id="Layer_1" data-name="Layer 1" xmlns="http://www.w3.org/2000/svg" viewBox="0 0 512 512">
  <defs>
    <style>
      .cls-1 {
        fill: #0a64ff;
      }

      .cls-1, .cls-2 {
        stroke-width: 0px;
      }

      .cls-2 {
        fill: #fff;
      }
    </style>
  </defs>
  <circle class="cls-1" cx="256" cy="256" r="256"/>
  <path class="cls-2" d="m255.75,31c124.09-.18,225.16,100.72,225.25,224.88.09,124.08-100.93,225.14-225.02,225.12-123.91-.02-224.71-100.65-224.98-224.63-.27-124.07,100.57-225.19,224.75-225.37Zm-175.24,229.01c.45.16.9.31,1.35.47,1.23,34.36,11.29,65.84,30.81,94.21,10.68,15.52,30.08,15.91,41.2.74,7.3-9.95,14-20.37,21.62-30.06,15.08-19.17,13.15-38.87,2.6-58.92-4.41-8.38-11.32-14.51-20.22-17.81-14.85-5.52-29.78-10.83-44.81-15.84-10.13-3.38-21.43.37-26.77,9.59-3.03,5.23-3.92,11.7-5.78,17.62Zm349.59,1.55c0-1.49,0-2.73,0-3.96.04-19.05-15.87-30.31-33.92-23.99-13.13,4.6-26.1,9.69-39.37,13.79-26.97,8.32-40.5,50.67-23.74,72.91,8.91,11.83,17.02,24.25,25.87,36.12,10.3,13.82,29.66,13.47,39.58-.63,19.93-28.32,30.15-59.94,31.58-94.24Zm-173.97,168.57c15.77-.07,31.27-2.06,46.47-6.36,17.98-5.1,24.77-23.03,14.24-38.39-8.18-11.93-16.57-23.74-25.22-35.34-17.92-24.06-53.52-23.93-71.41.22-8.51,11.49-16.79,23.14-24.92,34.9-10.59,15.31-3.98,33.46,13.84,38.55,15.36,4.39,31.04,6.4,47,6.43Zm-25.12-292.44c-.18,0-.35-.02-.53-.02,0-7.94.27-15.9-.06-23.83-.65-16-15.69-27.41-30.65-22.45-32.28,10.71-59.1,29.69-79.96,56.59-9.8,12.64-4.51,30.78,10.35,36.51,14.94,5.76,30.05,11.2,45.39,15.77,23.6,7.02,49.3-8.72,53.74-33.05,1.76-9.62,1.21-19.67,1.72-29.52Zm50.48-.32s.04,0,.06,0c0,7.59-.26,15.19.05,22.77,1.12,27.76,28.46,47.89,55.07,40.06,14.84-4.37,29.39-9.8,43.91-15.21,16.62-6.19,21.71-24.72,10.59-38.51-20.41-25.31-46.04-43.46-76.6-54.44-16.8-6.03-32.67,5.2-33.04,23.08-.15,7.41-.03,14.83-.03,22.24Zm-25.4,144.02c13.86-.04,25.24-11.45,25.27-25.34.03-13.9-11.31-25.34-25.18-25.42-14.12-.08-25.64,11.47-25.52,25.59.11,13.9,11.54,25.21,25.43,25.17Z"/>
</svg>